HIERARCHY
ROOT Hips
{
	OFFSET 0.00000 0.00000 0.00000
	CHANNELS 6 Xposition Yposition Zposition Zrotation Yrotation Xrotation 
	JOINT LHipJoint
	{
		OFFSET 0 0 0
		CHANNELS 3 Zrotation Yrotation Xrotation
		JOINT LeftUpLeg
		{
			OFFSET 1.33213 -1.58186 0.78596
			CHANNELS 3 Zrotation Yrotation Xrotation
			JOINT LeftLeg
			{
				OFFSET 2.29717 -6.31144 0.00000
				CHANNELS 3 Zrotation Yrotation Xrotation
				JOINT LeftFoot
				{
					OFFSET 2.38430 -6.55082 0.00000
					CHANNELS 3 Zrotation Yrotation Xrotation
					JOINT LeftToeBase
					{
						OFFSET 0.11863 -0.32594 1.77568
						CHANNELS 3 Zrotation Yrotation Xrotation
						End Site
						{
							OFFSET 0.00000 -0.00000 0.91633
						}
					}
				}
			}
		}
	}
	JOINT RHipJoint
	{
		OFFSET 0 0 0
		CHANNELS 3 Zrotation Yrotation Xrotation
		JOINT RightUpLeg
		{
			OFFSET -1.41575 -1.58186 0.78596
			CHANNELS 3 Zrotation Yrotation Xrotation
			JOINT RightLeg
			{
				OFFSET -2.42012 -6.64922 0.00000
				CHANNELS 3 Zrotation Yrotation Xrotation
				JOINT RightFoot
				{
					OFFSET -2.47254 -6.79327 0.00000
					CHANNELS 3 Zrotation Yrotation Xrotation
					JOINT RightToeBase
					{
						OFFSET -0.15219 -0.41813 1.93430
						CHANNELS 3 Zrotation Yrotation Xrotation
						End Site
						{
							OFFSET -0.00000 -0.00000 0.99984
						}
					}
				}
			}
		}
	}
	JOINT LowerBack
	{
		OFFSET 0 0 0
		CHANNELS 3 Zrotation Yrotation Xrotation
		JOINT Spine
		{
			OFFSET -0.04717 2.09389 -0.14516
			CHANNELS 3 Zrotation Yrotation Xrotation
			JOINT Spine1
			{
				OFFSET 0.02825 2.09433 -0.11325
				CHANNELS 3 Zrotation Yrotation Xrotation
				JOINT Neck
				{
					OFFSET 0 0 0
					CHANNELS 3 Zrotation Yrotation Xrotation
					JOINT Neck1
					{
						OFFSET -0.01210 1.39029 0.12448
						CHANNELS 3 Zrotation Yrotation Xrotation
						JOINT Head
						{
							OFFSET 0.09492 1.38365 0.14559
							CHANNELS 3 Zrotation Yrotation Xrotation
							End Site
							{
								OFFSET 0.03402 1.40343 0.03708
							}
						}
					}
				}
				JOINT LeftShoulder
				{
					OFFSET 0 0 0
					CHANNELS 3 Zrotation Yrotation Xrotation
					JOINT LeftArm
					{
						OFFSET 2.83352 1.10671 -0.20481
						CHANNELS 3 Zrotation Yrotation Xrotation
						JOINT LeftForeArm
						{
							OFFSET 4.77195 -0.00000 -0.00000
							CHANNELS 3 Zrotation Yrotation Xrotation
							JOINT LeftHand
							{
								OFFSET 2.98444 -0.00000 0.00000
								CHANNELS 3 Zrotation Yrotation Xrotation
								JOINT LeftFingerBase
								{
									OFFSET 0 0 0
									CHANNELS 3 Zrotation Yrotation Xrotation
									JOINT LeftHandIndex1
									{
										OFFSET 0.99228 -0.00000 0.00000
										CHANNELS 3 Zrotation Yrotation Xrotation
										End Site
										{
											OFFSET 0.80001 -0.00000 0.00000
										}
									}
								}
								JOINT LThumb
								{
									OFFSET 0 0 0
									CHANNELS 3 Zrotation Yrotation Xrotation
									End Site
									{
										OFFSET 0.81222 -0.00000 0.81222
									}
								}
							}
						}
					}
				}
				JOINT RightShoulder
				{
					OFFSET 0 0 0
					CHANNELS 3 Zrotation Yrotation Xrotation
					JOINT RightArm
					{
						OFFSET -3.23760 1.11106 0.06723
						CHANNELS 3 Zrotation Yrotation Xrotation
						JOINT RightForeArm
						{
							OFFSET -4.62052 -0.00000 0.00000
							CHANNELS 3 Zrotation Yrotation Xrotation
							JOINT RightHand
							{
								OFFSET -2.95332 -0.00000 0.00000
								CHANNELS 3 Zrotation Yrotation Xrotation
								JOINT RightFingerBase
								{
									OFFSET 0 0 0
									CHANNELS 3 Zrotation Yrotation Xrotation
									JOINT RightHandIndex1
									{
										OFFSET -0.99096 -0.00000 0.00000
										CHANNELS 3 Zrotation Yrotation Xrotation
										End Site
										{
											OFFSET -0.79893 -0.00000 0.00000
										}
									}
								}
								JOINT RThumb
								{
									OFFSET 0 0 0
									CHANNELS 3 Zrotation Yrotation Xrotation
									End Site
									{
										OFFSET -0.81113 -0.00000 0.81113
									}
								}
							}
						}
					}
				}
			}
		}
	}
}
MOTION
Frames: 15
Frame Time: .0083333
-0.1302 16.1085 36.9333 0 0 0 0 0 0 -21 0 0 0 0 0 0 0 0 0 0 0 0 0 0 21 0 0 0 0 0 0 0 0 0 0 0 0 0 0 0 0 0 0 0 0 0 0 -16 0 0 21 0 0 11 0 0 0 -8 0 0 0 0 0 0 0 0 0 0 0 0 0 0 0 0 0 0 0 0 8 0 0 0 0 0 0 0 0 0 0 0 0 0 0 0 0 0
-0.1302 16.1085 36.9333 -177.5590 -16.2937 -171.5810 0.0000 0.0000 0.0000 -18.1802 -10.9275 3.5061 0.1596 2.5739 7.0945 0.0743 -9.4476 -7.8635 0.1808 2.7385 7.5515 0.0000 0.0000 0.0000 15.0488 6.8508 -29.6007 -1.5737 -7.9151 22.4566 -0.1631 4.1081 -7.3017 -0.5544 -4.7698 13.2532 -2.8087 -0.5028 -11.3211 2.1126 -0.4666 1.5380 3.7519 -0.4202 8.0507 -7.1935 -2.2898 2.1754 10.6753 -2.9041 -8.0756 4.4942 -1.7143 -2.4598 0.0000 0.0000 0.0000 -90.9959 -2.2269 -2.9627 6.9707 -11.8711 -0.7256 -0.0000 -0.0000 43.8652 11.0891 11.3018 2.1997 -7.1250 0.0000 -0.0000 -14.1837 41.0690 1.4069 0.0000 0.0000 0.0000 89.7146 -0.9281 -0.7012 -15.1339 24.3323 -3.2809 0.0000 0.0000 32.9845 -4.7467 -9.8008 0.8098 7.1250 -0.0000 -0.0000 19.1483 -39.0882 2.9153
-0.1297 16.1046 36.9354 -177.5410 -16.0464 -171.7420 0.0000 0.0000 0.0000 -18.2267 -10.6129 3.6565 0.1558 2.5437 7.0109 0.0726 -9.4556 -7.8414 0.1861 2.7786 7.6629 0.0000 0.0000 0.0000 15.1090 6.8902 -29.5300 -1.5846 -7.9412 22.5357 -0.1551 4.0699 -7.1314 -0.4296 -4.2062 11.6575 -2.1398 -0.4258 -11.1172 1.2779 -0.3803 1.6449 2.4967 -0.3200 8.0257 -5.1608 -3.0314 2.6066 10.2875 -3.8440 -9.4065 4.0920 -2.2940 -2.8920 -0.0000 0.0000 0.0000 -89.8071 -1.9278 1.5462 7.6070 -12.9138 -0.8622 -0.0000 -0.0000 39.4960 10.4939 10.0466 1.8507 -7.1250 0.0000 -0.0000 -14.3857 39.7838 1.8950 -0.0000 0.0000 0.0000 91.2898 -0.4039 -1.3389 -14.9402 24.0627 -3.2015 0.0000 0.0000 33.9623 -4.8938 -9.7286 0.8289 7.1250 -0.0000 -0.0000 19.0062 -39.0314 2.9196
-0.1320 16.0998 36.9385 -177.5840 -15.8294 -171.8810 0.0000 0.0000 0.0000 -18.3645 -10.2610 4.0029 0.1378 2.3925 6.5918 0.0671 -9.3715 -7.7037 0.2186 3.0099 8.3063 0.0000 0.0000 0.0000 15.1281 6.7683 -29.5897 -1.6184 -8.0214 22.7790 -0.1393 4.2551 -6.8338 -0.3629 -3.8699 10.7108 -1.7058 -0.5661 -10.7856 0.8875 -0.5997 1.5327 1.7976 -0.3915 7.7169 -4.6604 -3.6831 3.3004 10.3215 -4.6951 -10.1757 4.0745 -2.7767 -3.1814 -0.0000 -0.0000 0.0000 -89.5302 -1.7060 3.7495 7.9935 -13.5424 -0.9506 -0.0000 -0.0000 36.9714 9.8913 9.4925 1.6472 -7.1250 0.0000 -0.0000 -14.7645 39.1926 2.1682 -0.0000 -0.0000 0.0000 91.8795 -0.3996 -1.3407 -14.7600 23.8107 -3.1284 0.0000 0.0000 34.7316 -5.0834 -9.7053 0.8592 7.1250 -0.0000 -0.0000 18.8424 -39.0242 2.8957
-0.1347 16.0906 36.9425 -177.6840 -15.5782 -171.9670 0.0000 0.0000 0.0000 -18.5744 -9.9006 4.2879 0.1237 2.2675 6.2455 0.0670 -9.3384 -7.6821 0.1896 2.8041 7.7340 0.0000 0.0000 0.0000 15.0579 6.7386 -29.6444 -1.6442 -8.0820 22.9634 -0.1258 4.4771 -6.5934 -0.2309 -3.0928 8.5373 -1.3423 -0.7558 -10.4558 0.4881 -0.8751 1.4036 1.1255 -0.4968 7.3887 -4.5598 -4.3836 4.0738 10.7582 -5.6113 -10.5686 4.2473 -3.2860 -3.3459 -0.0000 -0.0000 0.0000 -89.2445 -3.6409 -1.6973 6.5288 -11.1412 -0.6375 -0.0000 -0.0000 42.6693 10.6504 8.3646 1.5670 -7.1250 0.0000 -0.0000 -13.8731 38.1402 2.3986 -0.0000 -0.0000 0.0000 92.5036 -0.3949 -1.4589 -14.5259 23.4815 -3.0345 0.0000 0.0000 35.6531 -5.3231 -9.6683 0.8965 7.1250 -0.0000 -0.0000 18.6333 -39.0078 2.8686
-0.1394 16.0806 36.9428 -177.7720 -15.2396 -171.7600 0.0000 0.0000 0.0000 -18.7428 -9.5783 4.1888 0.1161 2.1964 6.0488 0.0726 -9.3346 -7.7699 0.1114 2.1518 5.9253 0.0000 0.0000 0.0000 14.9426 6.8674 -29.9693 -1.6596 -8.1178 23.0724 -0.1092 4.6879 -6.2869 -0.0739 -1.7534 4.8247 -1.6063 -0.9589 -10.5431 0.5950 -1.1198 1.3368 1.3455 -0.6297 7.3830 -4.7551 -4.7711 4.4662 10.8594 -6.1317 -11.4512 4.3638 -3.5792 -3.6242 -0.0000 0.0000 0.0000 -90.0506 -4.1211 -2.4367 6.6219 -11.2953 -0.6556 -0.0000 -0.0000 43.7906 10.6207 8.1260 1.5183 -7.1250 0.0000 -0.0000 -13.8470 37.9028 2.4766 -0.0000 0.0000 0.0000 92.2731 -0.1374 -1.5395 -14.2580 23.1023 -2.9286 0.0000 0.0000 36.3508 -5.6070 -9.6348 0.9414 7.1250 -0.0000 -0.0000 18.3884 -38.9981 2.8323
-0.1456 16.0785 36.9381 -177.7420 -14.9395 -171.7270 0.0000 0.0000 0.0000 -18.7648 -9.2554 4.1776 0.1123 2.1606 5.9497 0.0718 -9.3386 -7.7590 0.1031 2.0701 5.6993 0.0000 0.0000 0.0000 14.9927 6.9040 -30.0642 -1.6636 -8.1271 23.1007 -0.0930 4.9187 -5.9954 -0.0035 -0.3836 1.0541 -1.7806 -1.1730 -10.5348 0.7795 -1.3970 1.3217 1.5919 -0.7768 7.3821 -4.9844 -5.0388 4.6501 10.8929 -6.5065 -12.0831 4.4491 -3.7821 -3.8049 0.0000 0.0000 0.0000 -90.7825 -4.4715 -2.2917 6.7287 -11.4719 -0.6767 -0.0000 -0.0000 43.9307 10.6853 7.7678 1.4609 -7.1250 0.0000 -0.0000 -13.7182 37.5538 2.5728 0.0000 0.0000 0.0000 91.9792 0.0652 -1.4673 -14.0073 22.7452 -2.8309 0.0000 0.0000 36.7724 -5.8959 -9.8381 1.0109 7.1250 -0.0000 -0.0000 18.2030 -39.2145 2.7002
-0.1508 16.0862 36.9298 -177.6320 -14.7132 -171.7610 0.0000 0.0000 0.0000 -18.6487 -9.0118 4.1476 0.1119 2.1572 5.9403 0.0634 -9.4243 -7.6751 0.1437 2.4430 6.7316 0.0000 0.0000 0.0000 15.1709 6.8730 -30.0304 -1.6557 -8.1087 23.0447 -0.0824 5.1009 -5.8178 -0.0004 -0.1342 0.3687 -1.8834 -1.3838 -10.5024 0.9884 -1.6820 1.3081 1.8230 -0.9254 7.3716 -5.2131 -5.2544 4.8073 10.9431 -6.8146 -12.6003 4.5343 -3.9482 -3.9509 -0.0000 -0.0000 0.0000 -91.3686 -4.7070 -0.9876 6.8444 -11.6629 -0.6999 -0.0000 -0.0000 43.2462 10.8674 7.6845 1.4705 -7.1250 0.0000 -0.0000 -13.5496 37.4836 2.5636 -0.0000 -0.0000 0.0000 91.7300 0.2959 -1.6860 -13.6730 22.2653 -2.7030 0.0000 0.0000 37.2636 -5.9981 -10.1607 1.0619 7.1250 -0.0000 -0.0000 18.2057 -39.5303 2.5530
-0.1541 16.0910 36.9204 -177.5100 -14.4733 -171.7250 0.0000 0.0000 0.0000 -18.4985 -8.7908 4.0081 0.1148 2.1848 6.0166 0.0580 -9.5583 -7.6702 0.1653 2.6190 7.2197 0.0000 0.0000 0.0000 15.3680 6.8996 -30.0432 -1.6402 -8.0725 22.9344 -0.0762 5.2623 -5.7374 -0.0002 0.0904 -0.2483 -1.9065 -1.5546 -10.5216 1.1422 -1.9198 1.2656 1.9582 -1.0465 7.3553 -5.4175 -5.4097 4.8888 11.0553 -7.0383 -12.9577 4.6246 -4.0718 -4.0409 0.0000 0.0000 0.0000 -91.7568 -4.8203 1.3503 7.0744 -12.0416 -0.7471 -0.0000 -0.0000 41.3915 10.8182 7.8149 1.4884 -7.1250 0.0000 -0.0000 -13.6173 37.6092 2.5341 0.0000 0.0000 0.0000 91.6250 0.5749 -2.4021 -13.2344 21.6297 -2.5390 0.0000 0.0000 38.2188 -6.1178 -10.2150 1.0890 7.1250 -0.0000 -0.0000 18.1206 -39.5919 2.5114
-0.1581 16.0918 36.9126 -177.4510 -14.1875 -171.6800 0.0000 0.0000 0.0000 -18.4551 -8.4902 3.9693 0.1112 2.1502 5.9209 0.0583 -9.5033 -7.6418 0.1591 2.5697 7.0830 0.0000 0.0000 0.0000 15.4686 7.0104 -30.0556 -1.6294 -8.0471 22.8574 -0.0696 5.3737 -5.6311 -0.0029 0.3450 -0.9481 -1.8875 -1.6810 -10.4611 1.2125 -2.0983 1.2159 1.9933 -1.1340 7.2790 -5.4689 -5.5062 4.7835 11.0852 -7.1784 -13.0895 4.6469 -4.1468 -4.0475 0.0000 0.0000 0.0000 -91.9543 -4.9044 3.7212 7.3381 -12.4743 -0.8031 -0.0000 -0.0000 39.3850 10.5914 7.9065 1.4734 -7.1250 0.0000 -0.0000 -13.8252 37.6845 2.5484 0.0000 0.0000 0.0000 91.6945 0.7516 -3.3437 -12.8717 21.0989 -2.4069 0.0000 0.0000 39.2689 -6.2500 -10.0462 1.0945 7.1250 -0.0000 -0.0000 17.9638 -39.4412 2.5574
-0.1628 16.0912 36.9056 -177.4710 -13.9197 -171.6970 0.0000 0.0000 0.0000 -18.5098 -8.1335 4.1625 0.0968 2.0065 5.5236 0.0389 -9.3659 -7.2380 0.2364 3.1291 8.6382 0.0000 0.0000 0.0000 15.4696 7.1224 -30.0173 -1.6313 -8.0516 22.8710 -0.0597 5.4529 -5.4316 -0.0017 0.2638 -0.7248 -1.9995 -1.8018 -10.3562 1.3136 -2.2541 1.2510 2.1392 -1.2175 7.2739 -5.5509 -5.5639 4.4612 11.0639 -7.2711 -13.0721 4.6425 -4.1859 -3.9775 0.0000 -0.0000 0.0000 -92.1840 -5.1644 5.7551 7.5217 -12.7746 -0.8432 -0.0000 -0.0000 37.9683 10.5718 7.7858 1.4483 -7.1250 0.0000 -0.0000 -13.8163 37.5641 2.5885 0.0000 -0.0000 0.0000 91.7057 0.9979 -4.4249 -12.5624 20.6427 -2.2967 0.0000 0.0000 40.1885 -6.1902 -9.9522 1.0739 7.1250 -0.0000 -0.0000 17.9883 -39.3467 2.6048
-0.1668 16.0886 36.8954 -177.5160 -13.6384 -171.7380 0.0000 0.0000 0.0000 -18.5824 -7.7203 4.4786 0.0782 1.8034 4.9625 0.0024 -9.2979 -6.5615 0.4369 4.2416 11.7574 0.0000 0.0000 0.0000 15.4504 7.2183 -29.9750 -1.6407 -8.0736 22.9380 -0.0470 5.5906 -5.1891 -0.0024 -0.3184 0.8750 -2.1900 -1.9122 -10.3243 1.4545 -2.3880 1.3537 2.3724 -1.2963 7.3881 -5.7188 -5.5904 4.0367 11.0184 -7.3267 -12.9702 4.6360 -4.1966 -3.8656 0.0000 -0.0000 0.0000 -92.4402 -5.4766 8.1116 7.7348 -13.1220 -0.8909 -0.0000 -0.0000 36.3753 10.6675 7.7771 1.4601 -7.1250 0.0000 -0.0000 -13.7350 37.5619 2.5733 0.0000 -0.0000 0.0000 91.6119 1.2999 -5.5072 -12.2283 20.1461 -2.1803 0.0000 0.0000 41.0739 -6.0972 -10.0217 1.0649 7.1250 -0.0000 -0.0000 18.0849 -39.4056 2.5926
-0.1678 16.0907 36.8891 -177.6950 -13.3847 -171.5880 0.0000 0.0000 0.0000 -18.8068 -7.3974 4.6622 0.0593 1.5713 4.3223 -0.0052 -9.0743 -6.2648 0.3938 4.0295 11.1597 0.0000 0.0000 0.0000 15.2621 7.3672 -30.1177 -1.6507 -8.0971 23.0095 -0.0368 5.7011 -4.9935 -0.0109 -0.6751 1.8553 -2.3668 -2.0134 -10.3251 1.4526 -2.4999 1.3268 2.4514 -1.3577 7.3749 -5.7233 -5.6028 3.7596 10.9652 -7.3530 -12.9117 4.6079 -4.2038 -3.8014 0.0000 0.0000 0.0000 -92.5373 -5.7034 9.7689 7.9219 -13.4262 -0.9339 -0.0000 -0.0000 35.3321 10.6310 7.8260 1.4641 -7.1250 0.0000 -0.0000 -13.7754 37.6077 2.5654 0.0000 0.0000 0.0000 91.6829 1.3515 -6.4268 -11.9387 19.7126 -2.0816 0.0000 0.0000 41.8816 -6.0578 -10.1160 1.0679 7.1250 -0.0000 -0.0000 18.1436 -39.4925 2.5612
-0.1649 16.0988 36.8874 -178.0110 -13.1813 -171.2540 0.0000 0.0000 0.0000 -19.1739 -7.2195 4.6487 0.0443 1.3592 3.7376 0.0100 -8.6692 -6.2679 0.1984 2.8681 7.9116 0.0000 0.0000 0.0000 14.8976 7.5782 -30.4091 -1.6562 -8.1100 23.0486 -0.0304 5.6912 -4.8244 -0.0154 -0.8022 2.2047 -2.5662 -2.1092 -10.3525 1.3018 -2.5902 1.1918 2.3901 -1.4032 7.2540 -5.5971 -5.5793 3.6446 11.0082 -7.3176 -12.9254 4.5963 -4.1983 -3.7924 -0.0000 0.0000 0.0000 -92.5018 -5.9823 10.2779 7.9717 -13.5070 -0.9455 -0.0000 -0.0000 35.2961 10.5907 7.7674 1.4476 -7.1250 0.0000 -0.0000 -13.7968 37.5472 2.5905 -0.0000 0.0000 0.0000 91.9428 1.2996 -7.4285 -11.6480 19.2747 -1.9846 0.0000 0.0000 42.6561 -6.1133 -9.9924 1.0647 7.1250 -0.0000 -0.0000 18.0635 -39.3790 2.6016
-0.1651 16.1065 36.8796 -178.1620 -12.9087 -171.0870 0.0000 0.0000 0.0000 -19.3800 -6.9122 4.7348 0.0334 1.1790 3.2415 0.0140 -8.3463 -6.1254 0.1383 2.3965 6.6028 0.0000 0.0000 0.0000 14.7575 7.7211 -30.5547 -1.6585 -8.1152 23.0644 -0.0206 5.7554 -4.6051 -0.0236 -0.9916 2.7258 -2.6511 -2.1763 -10.4022 1.2457 -2.6639 1.1424 2.3654 -1.4406 7.2358 -5.6229 -5.4976 3.5760 11.0965 -7.2069 -12.9111 4.6223 -4.1494 -3.7810 -0.0000 0.0000 0.0000 -92.5035 -6.2653 11.0516 8.0312 -13.6035 -0.9595 -0.0000 -0.0000 34.9476 10.6300 7.7014 1.4408 -7.1250 0.0000 -0.0000 -13.7504 37.4847 2.6030 -0.0000 0.0000 0.0000 92.1020 1.3217 -8.5465 -11.3411 18.8092 -1.8844 0.0000 0.0000 43.5382 -6.2247 -9.7743 1.0608 7.1250 -0.0000 -0.0000 17.9117 -39.1794 2.6696
